<svg xmlns="http://www.w3.org/2000/svg" xmlns:xlink="http://www.w3.org/1999/xlink" viewBox="0 0 90 65"><defs><style>.a{fill:url(#a);}.b{fill:url(#b);}</style><linearGradient id="a" y1="25.5" x2="90" y2="25.5" gradientTransform="matrix(1, 0, 0, -1, 0, 65.5)" gradientUnits="userSpaceOnUse"><stop offset="0" stop-color="#db2525"/><stop offset="1" stop-color="#a10829"/></linearGradient><linearGradient id="b" y1="49.5" y2="49.5" xlink:href="#a"/></defs><title>email</title><path class="a" d="M3,20,43.6,41.6l1.4.8,1.4-.8L87,20V57a5,5,0,0,1-5,5H8a5,5,0,0,1-5-5V20m87-5h0L45,39,0,15H0V57a8,8,0,0,0,8,8H82a8,8,0,0,0,8-8Z"/><path class="b" d="M82,3a5,5,0,0,1,4.7,3.3L45,28.6,3.3,6.3A5,5,0,0,1,8,3H82m0-3H8A8,8,0,0,0,0,8H0L45,32,90,8h0A8,8,0,0,0,82,0Z"/></svg>