<svg xmlns="http://www.w3.org/2000/svg" xmlns:xlink="http://www.w3.org/1999/xlink" viewBox="0 0 125 30"><defs><linearGradient id="a" y1="22.5" x2="25.34" y2="22.5" gradientUnits="userSpaceOnUse"><stop offset="0.2" stop-color="#94003e"/><stop offset="1" stop-color="#db2525"/></linearGradient><linearGradient id="b" y1="15" x2="25.34" y2="15" gradientUnits="userSpaceOnUse"><stop offset="0.2" stop-color="#db2525"/><stop offset="1" stop-color="#94003e"/></linearGradient><linearGradient id="c" x1="39.56" y1="6.47" x2="124.98" y2="6.47" xlink:href="#b"/><linearGradient id="k" x1="39.56" y1="23.66" x2="124.98" y2="23.66" xlink:href="#b"/><linearGradient id="o" x1="39.56" y1="23.65" x2="124.98" y2="23.65" xlink:href="#b"/></defs><title>logo</title><path d="M21,21a.67.67,0,0,0-.91,0,7.89,7.89,0,0,1-13-6H0A15,15,0,0,0,25.15,26a.61.61,0,0,0,0-.88Z" style="fill:url(#a)"/><path d="M25.15,4A15,15,0,0,0,0,15V30a7.11,7.11,0,0,0,7.11-7.11V15a7.89,7.89,0,0,1,13-6A.67.67,0,0,0,21,9l4.13-4.13A.61.61,0,0,0,25.15,4Z" style="fill:url(#b)"/><path d="M41.2,10.21A5.09,5.09,0,0,1,39.7,6.45a5.08,5.08,0,0,1,1.51-3.72,5.06,5.06,0,0,1,3.73-1.51,5.67,5.67,0,0,1,3.85,1.4l-1.4,1.53a3.87,3.87,0,0,0-2.45-.84,3.08,3.08,0,0,0-2.28.88,3.05,3.05,0,0,0-.86,2.24,3.15,3.15,0,0,0,.87,2.32,3.1,3.1,0,0,0,2.28.86,3.76,3.76,0,0,0,2.44-.83l1.4,1.53a5.66,5.66,0,0,1-3.85,1.4A5.1,5.1,0,0,1,41.2,10.21Z" style="fill:url(#c)"/><path d="M52,10.21a5.08,5.08,0,0,1-1.5-3.74A5.25,5.25,0,1,1,61,6.47a5.29,5.29,0,0,1-9,3.74Zm3.75-.45A3,3,0,0,0,58,8.81a3.32,3.32,0,0,0,.87-2.34A3.32,3.32,0,0,0,58,4.13a3.21,3.21,0,0,0-4.55,0,3.32,3.32,0,0,0-.87,2.34,3.32,3.32,0,0,0,.87,2.34A3,3,0,0,0,55.77,9.76Z" style="fill:url(#c)"/><path d="M62.56,11.72V1.23h.7L67.81,6.4l4.55-5.17h.7V11.72H71V5.63l-3.15,3.5-3.15-3.5v6.08Z" style="fill:url(#c)"/><path d="M75.15,11.72V1.23h4.57q3.67,0,3.67,3T79.73,7.38H77.25v4.34Zm2.1-6.29h2.94q1.27,0,1.3-1.15T80.21,3.19h-3Z" style="fill:url(#c)"/><path d="M86.88,1.23V7.31a2.11,2.11,0,0,0,.7,1.75,3,3,0,0,0,3.5,0,2.11,2.11,0,0,0,.7-1.75V1.23h2.1V7.87a3.47,3.47,0,0,1-1.29,2.73,5.28,5.28,0,0,1-6.5,0,3.48,3.48,0,0,1-1.29-2.73V1.23Z" style="fill:url(#c)"/><path d="M104.7,1.23v2h-3.5v8.53H99.1V3.18h-3.5v-2Z" style="fill:url(#c)"/><path d="M106.23,11.72V1.23h7.71v2h-5.61V5.42h4.2v2h-4.2V9.76h5.59v2Z" style="fill:url(#c)"/><path d="M122.36,7.14,125,11.72h-2.41l-2.51-4.34h-1.92v4.34H116V1.23h4.57q3.67,0,3.67,3A2.71,2.71,0,0,1,122.36,7.14Zm-4.22-1.72h2.94q1.27,0,1.3-1.15T121.1,3.19h-3Z" style="fill:url(#c)"/><path d="M45.89,18.76a4.88,4.88,0,0,1,1.5,1L46,21.21a2.41,2.41,0,0,0-2-.84q-1.26,0-1.61.59a.82.82,0,0,0,0,1,2.76,2.76,0,0,0,1.61.63,5.22,5.22,0,0,1,2.41.87,2.63,2.63,0,0,1,1.08,2.34A2.69,2.69,0,0,1,46.38,28a4.24,4.24,0,0,1-2.7.91,6.2,6.2,0,0,1-2.44-.42,5.28,5.28,0,0,1-1.68-1.12L41,26a3.32,3.32,0,0,0,2.38,1q1.4,0,1.75-.59a1.11,1.11,0,0,0,0-1.19q-.35-.59-1.75-.73A5.63,5.63,0,0,1,41,23.66a2.32,2.32,0,0,1-1-2.17,2.61,2.61,0,0,1,1.19-2.23,4.19,4.19,0,0,1,2.45-.84A5.85,5.85,0,0,1,45.89,18.76Z" style="fill:url(#k)"/><path d="M49.38,28.9V18.42h7.71v2H51.48v2.24h4.2v2h-4.2v2.38h5.59v2Z" style="fill:url(#k)"/><path d="M65.52,24.33l2.62,4.57H65.73l-2.51-4.34H61.3V28.9H59.2V18.41h4.57q3.67,0,3.67,3A2.71,2.71,0,0,1,65.52,24.33ZM61.3,22.61h2.94q1.27,0,1.3-1.15t-1.28-1.08h-3Z" style="fill:url(#k)"/><path d="M70.82,18.41l3,7.68,3-7.68h2.24L74.88,28.9h-2.1l-4.2-10.49Z" style="fill:url(#k)"/><path d="M80.81,18.41H82.9V28.9H80.81Z" style="fill:url(#o)"/><path d="M86,27.4a5.09,5.09,0,0,1-1.51-3.76,5.15,5.15,0,0,1,5.24-5.22,5.67,5.67,0,0,1,3.85,1.4l-1.4,1.53a3.87,3.87,0,0,0-2.46-.84,3,3,0,0,0-3.14,3.12,3.15,3.15,0,0,0,.87,2.32,3.1,3.1,0,0,0,2.28.86A3.76,3.76,0,0,0,92.18,26l1.4,1.53a5.66,5.66,0,0,1-3.85,1.4A5.1,5.1,0,0,1,86,27.4Z" style="fill:url(#k)"/><path d="M95.81,28.9V18.42h7.71v2H97.91v2.24h4.2v2h-4.2v2.38h5.59v2Z" style="fill:url(#k)"/><path d="M111.31,18.76a4.88,4.88,0,0,1,1.5,1l-1.4,1.4a2.41,2.41,0,0,0-2-.84q-1.26,0-1.61.59a.82.82,0,0,0,0,1,2.76,2.76,0,0,0,1.61.63,5.21,5.21,0,0,1,2.41.87,2.63,2.63,0,0,1,1.08,2.34A2.69,2.69,0,0,1,111.79,28a4.24,4.24,0,0,1-2.7.91,6.21,6.21,0,0,1-2.44-.42A5.29,5.29,0,0,1,105,27.36l1.4-1.4a3.32,3.32,0,0,0,2.38,1q1.4,0,1.74-.59a1.1,1.1,0,0,0,0-1.19q-.35-.59-1.74-.73a5.62,5.62,0,0,1-2.31-.77,2.32,2.32,0,0,1-1-2.17,2.61,2.61,0,0,1,1.19-2.23,4.2,4.2,0,0,1,2.45-.84A5.85,5.85,0,0,1,111.31,18.76Z" style="fill:url(#k)"/></svg>
