<svg xmlns="http://www.w3.org/2000/svg" xmlns:xlink="http://www.w3.org/1999/xlink" viewBox="0 0 65.4 65"><defs><style>.a{fill:url(#a);}</style><linearGradient id="a" y1="32.5" x2="65.39" y2="32.5" gradientUnits="userSpaceOnUse"><stop offset="0" stop-color="#db2525"/><stop offset="1" stop-color="#a10829"/></linearGradient></defs><title>repair</title><path class="a" d="M19.3,3A16.3,16.3,0,0,1,31,7.8,16.1,16.1,0,0,1,34.7,25L34,26.9l1.4,1.4L62.2,55.1h-.1l-6.8,6.8-27-27L27,33.6l-1.8.7a15.7,15.7,0,0,1-5.7,1.1A16.2,16.2,0,0,1,7.9,30.5,16.3,16.3,0,0,1,3.2,16.2l9.7,9.4L15,27.7l2.1-2.1L26,16.7l2.1-2.1L26,12.4,16.8,3.2,19.3,3m0-3a19.7,19.7,0,0,0-8.2,1.8L23.9,14.5,15,23.4,1.9,10.7a19.1,19.1,0,0,0,3.9,22,19.3,19.3,0,0,0,13.6,5.7,18.7,18.7,0,0,0,6.8-1.3l27,27a2.9,2.9,0,0,0,4.2,0l6.8-6.8a2.7,2.7,0,0,0,.3-4.2l-27-27A19,19,0,0,0,33.1,5.6,19.4,19.4,0,0,0,19.3,0Z" transform="translate(0)"/></svg>