<svg xmlns="http://www.w3.org/2000/svg" xmlns:xlink="http://www.w3.org/1999/xlink" viewBox="0 0 102.2 65"><defs><style>.a{fill:url(#a);}.b{fill:url(#b);}</style><linearGradient id="a" x1="13.89" y1="29.81" x2="88.32" y2="29.81" gradientUnits="userSpaceOnUse"><stop offset="0" stop-color="#db2525"/><stop offset="1" stop-color="#a10829"/></linearGradient><linearGradient id="b" x1="0" y1="32.5" x2="102.21" y2="32.5" xlink:href="#a"/></defs><title>setup</title><path class="a" d="M85.2,5.4H17a3.1,3.1,0,0,0-3.1,3.1V51.1A3.1,3.1,0,0,0,17,54.2H85.2a3.1,3.1,0,0,0,3.1-3.1V8.5a3.1,3.1,0,0,0-3.1-3.1ZM17,51.1V8.5H85.2V51.1Z" transform="translate(0)"/><path class="b" d="M85.2,0H17A8.5,8.5,0,0,0,8.5,8.5V51.1a8.5,8.5,0,0,0,1.9,5.4H3.1A3.1,3.1,0,0,0,0,59.6v2.3A3.1,3.1,0,0,0,3.1,65h96a3.1,3.1,0,0,0,3.1-3.1V59.6a3.1,3.1,0,0,0-3.1-3.1H91.8a8.5,8.5,0,0,0,1.9-5.4V8.5A8.5,8.5,0,0,0,85.2,0ZM17.1,56.5a5.3,5.3,0,0,1-5.4-5.1V8.5A5.4,5.4,0,0,1,17,3.1H85.2a5.4,5.4,0,0,1,5.4,5.4V51.3a5.3,5.3,0,0,1-5.4,5.1ZM3.1,61.9V59.6H99.1v2.2Z" transform="translate(0)"/></svg>