<svg xmlns="http://www.w3.org/2000/svg" xmlns:xlink="http://www.w3.org/1999/xlink" viewBox="0 0 80.2 65"><defs><style>.a{fill:url(#a);}.b{fill:url(#b);}</style><linearGradient id="a" y1="32.5" x2="80.15" y2="32.5" gradientUnits="userSpaceOnUse"><stop offset="0" stop-color="#db2525"/><stop offset="1" stop-color="#a10829"/></linearGradient><linearGradient id="b" x1="32.14" y1="37.19" x2="53.65" y2="37.19" xlink:href="#a"/></defs><title>upgrade</title><path class="a" d="M40.1,0A40.1,40.1,0,0,0,0,40,39.6,39.6,0,0,0,8.3,64.4a1.4,1.4,0,0,0,2.3-1.8L8.8,60.1l2.4-1.4a1.5,1.5,0,1,0-1.5-2.6L7.2,57.5a36.7,36.7,0,0,1-4.3-16H5.7a1.5,1.5,0,0,0,0-3H2.9A36.9,36.9,0,0,1,7.1,22.8l2.4,1.4.7.2a1.5,1.5,0,0,0,.8-2.8L8.6,20.2A37.5,37.5,0,0,1,20,8.7l1.4,2.4a1.5,1.5,0,0,0,1.3.8l.7-.2a1.5,1.5,0,0,0,.5-2L22.6,7.2A37,37,0,0,1,38.6,2.9V5.7a1.5,1.5,0,1,0,3,0V2.9A37,37,0,0,1,57.5,7.2L56.1,9.6a1.5,1.5,0,0,0,.5,2l.7.2a1.5,1.5,0,0,0,1.3-.8l1.4-2.4A37.5,37.5,0,0,1,71.6,20.3l-2.4,1.4a1.5,1.5,0,0,0,.8,2.8l.7-.2,2.4-1.4a36.9,36.9,0,0,1,4.2,15.6H74.4a1.5,1.5,0,0,0,0,3h2.8a36.7,36.7,0,0,1-4.3,16l-2.4-1.4A1.5,1.5,0,1,0,69,58.7l2.4,1.4-1.8,2.6a1.4,1.4,0,0,0,2.3,1.8A39.6,39.6,0,0,0,80.2,40,40.1,40.1,0,0,0,40.1,0Z"/><path class="b" d="M46.9,33.1l-1.8,3.7-.5,1,.3,1.1a4.9,4.9,0,1,1-4.8-3.8h1.2l1.1.3,1-.5,3.7-1.8m6.7-6.7h0Zm0,0L41.9,32.3l-1.9-.2a7.9,7.9,0,1,0,7.7,6.1l5.9-11.7Z"/></svg>