<svg xmlns="http://www.w3.org/2000/svg" xmlns:xlink="http://www.w3.org/1999/xlink" viewBox="0 0 65 65"><defs><style>.a{fill:url(#a);}</style><linearGradient id="a" y1="32.5" x2="65" y2="32.5" gradientUnits="userSpaceOnUse"><stop offset="0" stop-color="#db2525"/><stop offset="1" stop-color="#a10829"/></linearGradient></defs><title>facebook</title><path class="a" d="M57.1,3A4.9,4.9,0,0,1,62,7.9V57.1A4.9,4.9,0,0,1,57.1,62H46.7V42.1h4.7a3,3,0,0,0,3-2.6l1.1-8.9a3,3,0,0,0-3-3.4H46.7V24.5a4,4,0,0,1,.1-1.2l1.3-.2h4.7a3,3,0,0,0,3-3v-8a3,3,0,0,0-2.6-3,65.8,65.8,0,0,0-7.3-.4c-8.8,0-14.5,5.8-14.5,14.8v3.6H26.8a3,3,0,0,0-3,3v8.9a3,3,0,0,0,3,3h4.7V62H7.9A4.9,4.9,0,0,1,3,57.1V7.9A4.9,4.9,0,0,1,7.9,3H57.1M46.8,23.3h0M57.1,0H7.9A7.9,7.9,0,0,0,0,7.9V57.1A7.9,7.9,0,0,0,7.9,65H34.5V39.1H26.8V30.2h7.7V23.6c0-7.6,4.7-11.8,11.5-11.8a63.2,63.2,0,0,1,6.9.4v8H48.1c-3.7,0-4.4,1.8-4.4,4.3v5.7h8.8l-1.1,8.9H43.7V65H57.1A7.9,7.9,0,0,0,65,57.1V7.9A7.9,7.9,0,0,0,57.1,0Z"/></svg>