<svg xmlns="http://www.w3.org/2000/svg" xmlns:xlink="http://www.w3.org/1999/xlink" viewBox="0 0 65 65"><defs><style>.a{fill:url(#a);}</style><linearGradient id="a" y1="32.5" x2="65" y2="32.5" gradientUnits="userSpaceOnUse"><stop offset="0" stop-color="#db2525"/><stop offset="1" stop-color="#a10829"/></linearGradient></defs><title>phone</title><path class="a" d="M61.4,3a.6.6,0,0,1,.6.6A58.5,58.5,0,0,1,3.6,62a.6.6,0,0,1-.6-.6V48.8a.6.6,0,0,1,.6-.6,43.9,43.9,0,0,0,13.8-2.2h.2l.4.2,6,6a3,3,0,0,0,3.5.6A57.8,57.8,0,0,0,52.6,27.5a3,3,0,0,0-.6-3.5l-6-6a.6.6,0,0,1-.2-.6A44,44,0,0,0,48.1,3.6a.6.6,0,0,1,.6-.6H61.4m0-3H48.8a3.6,3.6,0,0,0-3.6,3.6,41,41,0,0,1-2.1,12.9,3.6,3.6,0,0,0,.9,3.7l6,6A54.5,54.5,0,0,1,26.1,49.9l-6-6a3.6,3.6,0,0,0-2.6-1.1l-1.1.2A41,41,0,0,1,3.6,45.1,3.6,3.6,0,0,0,0,48.8V61.4A3.6,3.6,0,0,0,3.6,65,61.4,61.4,0,0,0,65,3.6,3.6,3.6,0,0,0,61.4,0Z" transform="translate(0)"/></svg>