<?xml version="1.0" standalone="no"?>
<!DOCTYPE svg PUBLIC "-//W3C//DTD SVG 20010904//EN"
 "http://www.w3.org/TR/2001/REC-SVG-20010904/DTD/svg10.dtd">
<svg version="1.0" xmlns="http://www.w3.org/2000/svg"
 width="260.000000pt" height="260.000000pt" viewBox="0 0 260.000000 260.000000"
 preserveAspectRatio="xMidYMid meet">
<metadata>
Created by potrace 1.11, written by Peter Selinger 2001-2013
</metadata>
<g transform="translate(0.000000,260.000000) scale(0.100000,-0.100000)"
fill="#000000" stroke="none">
<path d="M1360 2423 c-86 -10 -175 -29 -240 -50 -71 -24 -238 -102 -263 -124
-7 -5 -35 -26 -63 -47 -187 -137 -324 -329 -399 -559 -50 -150 -50 -159 -50
-833 l0 -635 42 2 c68 3 175 40 241 82 57 38 142 117 142 133 0 16 23 7 82
-33 310 -211 734 -242 1092 -80 76 35 215 123 262 168 62 58 63 56 -124 243
-112 112 -177 170 -191 170 -12 0 -43 -16 -70 -35 -53 -38 -158 -89 -206 -99
-70 -15 -83 -16 -140 -16 -235 -1 -441 128 -539 335 -43 90 -58 158 -59 254 0
290 208 538 493 586 41 7 166 8 195 2 105 -24 212 -69 251 -105 26 -25 59 -42
78 -42 19 0 356 337 356 357 0 45 -216 193 -368 252 -63 25 -178 56 -242 66
-48 8 -239 13 -280 8z"/>
</g>
</svg>
