<svg xmlns="http://www.w3.org/2000/svg" xmlns:xlink="http://www.w3.org/1999/xlink" viewBox="0 0 73.1 65"><defs><style>.a{fill:url(#a);}.b{fill:url(#b);}.c{fill:url(#c);}.d{fill:url(#d);}.e{fill:none;stroke-linecap:round;stroke-miterlimit:10;stroke-width:3px;stroke:url(#e);}</style><linearGradient id="a" x1="54.6" y1="9.25" x2="73.11" y2="9.25" gradientUnits="userSpaceOnUse"><stop offset="0" stop-color="#db2525"/><stop offset="1" stop-color="#a10829"/></linearGradient><linearGradient id="b" x1="0" y1="43.85" x2="18.5" y2="43.85" xlink:href="#a"/><linearGradient id="c" x1="0" y1="9.25" x2="18.5" y2="9.25" xlink:href="#a"/><linearGradient id="d" x1="40.85" y1="43.85" x2="73.11" y2="43.85" xlink:href="#a"/><linearGradient id="e" x1="23.38" y1="36.72" x2="49.72" y2="36.72" xlink:href="#a"/></defs><title>drop-off</title><path class="a" d="M63.9,3a6.3,6.3,0,1,1-6.3,6.3A6.3,6.3,0,0,1,63.9,3m0-3a9.3,9.3,0,1,0,9.3,9.3A9.3,9.3,0,0,0,63.9,0Z" transform="translate(0 0)"/><path class="b" d="M9.3,25.7a6.2,6.2,0,0,1,6.2,6.2V55.8A6.2,6.2,0,0,1,9.3,62H9.2A6.2,6.2,0,0,1,3,55.8V31.9a6.2,6.2,0,0,1,6.2-6.2h.1m0-3H9.2A9.2,9.2,0,0,0,0,31.9V55.8A9.2,9.2,0,0,0,9.2,65h.1a9.2,9.2,0,0,0,9.2-9.2V31.9a9.2,9.2,0,0,0-9.2-9.2Z" transform="translate(0 0)"/><path class="c" d="M9.3,3A6.3,6.3,0,1,1,3,9.3,6.3,6.3,0,0,1,9.3,3m0-3a9.3,9.3,0,1,0,9.3,9.3A9.3,9.3,0,0,0,9.3,0Z" transform="translate(0 0)"/><path class="d" d="M63.9,25.7A6.3,6.3,0,0,1,70.1,32V55.7a6.3,6.3,0,0,1-12.5,0V38.8a3,3,0,0,0-4.4-2.7,18.6,18.6,0,0,1-8.5,2h-.1a.8.8,0,0,1,0-1.7h0c5.7,0,11-2.9,13.5-7.3h.1a6.2,6.2,0,0,1,5.6-3.4h0m0-3h0a9.3,9.3,0,0,0-8.2,5c-2,3.5-6.3,5.8-10.9,5.8h0a3.8,3.8,0,1,0,0,7.7h0a21.5,21.5,0,0,0,9.9-2.4V55.7A9.3,9.3,0,0,0,63.9,65h0a9.3,9.3,0,0,0,9.3-9.3V32a9.3,9.3,0,0,0-9.3-9.3Z" transform="translate(0 0)"/><path class="e" d="M48.2,29.8a4.8,4.8,0,0,0-4.7-4.7H29.6a4.8,4.8,0,0,0-4.7,4.7V43.7a4.8,4.8,0,0,0,4.7,4.7H43.5a4.8,4.8,0,0,0,4.7-4.7" transform="translate(0 0)"/></svg>