<svg xmlns="http://www.w3.org/2000/svg" xmlns:xlink="http://www.w3.org/1999/xlink" viewBox="0 0 68 65"><defs><style>.a{fill:url(#a);}</style><linearGradient id="a" y1="32.5" x2="68.01" y2="32.5" gradientUnits="userSpaceOnUse"><stop offset="0" stop-color="#db2525"/><stop offset="1" stop-color="#a10829"/></linearGradient></defs><title>on-site</title><path class="a" d="M34,3h0L65,30.9H61.5a3.3,3.3,0,0,0-3.3,3.3V60.7A1.3,1.3,0,0,1,56.9,62H46.1a1.3,1.3,0,0,1-1.3-1.3v-16a6,6,0,0,0-6-6H29.2a6,6,0,0,0-6,6v16A1.3,1.3,0,0,1,21.9,62H11.1a1.3,1.3,0,0,1-1.3-1.3V34.2a3.3,3.3,0,0,0-3.3-3.3H3L34,3h0m0-3a3,3,0,0,0-2,.8L1,28.7a3,3,0,0,0,2,5.3H6.5a.3.3,0,0,1,.3.3V62a3,3,0,0,0,3,3H23.2a3,3,0,0,0,3-3V44.7a3,3,0,0,1,3-3h9.5a3,3,0,0,1,3,3V62a3,3,0,0,0,3,3H58.2a3,3,0,0,0,3-3V34.2a.3.3,0,0,1,.3-.3H65a3,3,0,0,0,2-5.3L36,.8A3,3,0,0,0,34,0Z"/></svg>